<svg width="48" height="48" viewBox="0 0 48 48" fill="none" xmlns="http://www.w3.org/2000/svg">
<mask id="mask0_13542_367700" style="mask-type:alpha" maskUnits="userSpaceOnUse" x="0" y="0" width="48" height="48">
<path d="M24 0C28.6754 6.36982e-08 32.5705 0.334575 35.6846 0.780273C41.7848 1.65351 46.3465 6.21524 47.2197 12.3154C47.6654 15.4295 48 19.3246 48 24C48 28.6754 47.6654 32.5705 47.2197 35.6846C46.3465 41.7848 41.7848 46.3465 35.6846 47.2197C32.5705 47.6654 28.6754 48 24 48C19.3246 48 15.4295 47.6654 12.3154 47.2197C6.21524 46.3465 1.65351 41.7848 0.780273 35.6846C0.334574 32.5705 0 28.6754 0 24C4.54987e-08 19.3246 0.334574 15.4295 0.780273 12.3154C1.65351 6.21524 6.21524 1.65351 12.3154 0.780273C15.4295 0.334574 19.3246 0 24 0Z" fill="#E7E8EB"/>
</mask>
<g mask="url(#mask0_13542_367700)">
<rect width="48" height="48" fill="#49494F"/>
<g clip-path="url(#clip0_13542_367700)">
<path d="M19.0039 34.666C20.2926 34.666 21.3369 35.7104 21.3369 36.999C21.3369 38.2877 20.2926 39.332 19.0039 39.332C17.7152 39.332 16.6709 38.2877 16.6709 36.999C16.6709 35.7104 17.7152 34.666 19.0039 34.666ZM31.0039 34.666C32.2926 34.666 33.3369 35.7104 33.3369 36.999C33.3369 38.2877 32.2926 39.332 31.0039 39.332C29.7152 39.332 28.6709 38.2877 28.6709 36.999C28.6709 35.7104 29.7152 34.666 31.0039 34.666ZM15.0156 14.666C15.6024 14.666 16.121 15.0491 16.292 15.6104L16.8154 17.332H36.0039V23.3564C36.0039 24.5301 35.2361 25.5655 34.1133 25.9072L20.6709 29.999H29.3369C30.8096 29.999 32.0039 31.1933 32.0039 32.666V33.332H17.6709L13.3369 17.999C11.4962 17.9988 10.0041 16.5067 10.0039 14.666H15.0156Z" fill="white"/>
</g>
</g>
<defs>
<clipPath id="clip0_13542_367700">
<rect width="32" height="32" fill="white" transform="translate(8 8)"/>
</clipPath>
</defs>
</svg>
