<svg width="64" height="64" viewBox="0 0 64 64" fill="none" xmlns="http://www.w3.org/2000/svg">
<path d="M32 8C34.4623 8 36.708 8.09288 38.7372 8.24588C40.0925 8.34807 41 9.64084 41 11C41 17.6274 46.3726 23 53 23C54.3587 23 55.6509 23.9061 55.7533 25.2609C55.9066 27.2906 56 29.5369 56 32C56 36.6754 55.6654 40.5705 55.2197 43.6846C54.3465 49.7848 49.7848 54.3465 43.6846 55.2197C40.5705 55.6654 36.6754 56 32 56C27.3246 56 23.4295 55.6654 20.3154 55.2197C14.2152 54.3465 9.65351 49.7848 8.78027 43.6846C8.33457 40.5705 8 36.6754 8 32C8 27.3246 8.33457 23.4295 8.78027 20.3154C9.65351 14.2152 14.2152 9.65351 20.3154 8.78027C23.4295 8.33457 27.3246 8 32 8Z" fill="#49494F"/>
<path d="M27.0039 42.666C28.2926 42.666 29.3369 43.7104 29.3369 44.999C29.3369 46.2877 28.2926 47.332 27.0039 47.332C25.7152 47.332 24.6709 46.2877 24.6709 44.999C24.6709 43.7104 25.7152 42.666 27.0039 42.666Z" fill="white"/>
<path d="M39.0039 42.666C40.2926 42.666 41.3369 43.7104 41.3369 44.999C41.3369 46.2877 40.2926 47.332 39.0039 47.332C37.7152 47.332 36.6709 46.2877 36.6709 44.999C36.6709 43.7104 37.7152 42.666 39.0039 42.666Z" fill="white"/>
<path d="M23.0156 22.666C23.6024 22.666 24.121 23.0491 24.292 23.6104L24.8154 25.332H44.0039V31.3564C44.0039 32.5301 43.2361 33.5655 42.1133 33.9072L28.6709 37.999H37.3369C38.8096 37.999 40.0039 39.1933 40.0039 40.666V41.332H25.6709L21.3369 25.999C19.4962 25.9988 18.0041 24.5067 18.0039 22.666H23.0156Z" fill="white"/>
</svg>
