<svg width="55" height="55" viewBox="0 0 55 55" fill="none" xmlns="http://www.w3.org/2000/svg">
<mask id="mask0_13542_367639" style="mask-type:alpha" maskUnits="userSpaceOnUse" x="0" y="7" width="48" height="48">
<path d="M24 7C26.4623 7 28.708 7.09288 30.7372 7.24588C32.0925 7.34807 33 8.64084 33 10C33 16.6274 38.3726 22 45 22C46.3587 22 47.6509 22.9061 47.7533 24.2609C47.9066 26.2906 48 28.5369 48 31C48 35.6754 47.6654 39.5705 47.2197 42.6846C46.3465 48.7848 41.7848 53.3465 35.6846 54.2197C32.5705 54.6654 28.6754 55 24 55C19.3246 55 15.4295 54.6654 12.3154 54.2197C6.21524 53.3465 1.65351 48.7848 0.780273 42.6846C0.334574 39.5705 0 35.6754 0 31C4.54987e-08 26.3246 0.334574 22.4295 0.780273 19.3154C1.65351 13.2152 6.21524 8.65351 12.3154 7.78027C15.4295 7.33457 19.3246 7 24 7Z" fill="#E7E8EB"/>
</mask>
<g mask="url(#mask0_13542_367639)">
<path d="M48 7H0V55H48V7Z" fill="#49494F"/>
<mask id="mask1_13542_367639" style="mask-type:luminance" maskUnits="userSpaceOnUse" x="8" y="15" width="32" height="32">
<path d="M40 15H8V47H40V15Z" fill="white"/>
</mask>
<g mask="url(#mask1_13542_367639)">
<path d="M19.0039 41.666C20.2925 41.666 21.3367 42.7105 21.3369 43.999C21.3369 45.2877 20.2926 46.333 19.0039 46.333C17.7152 46.333 16.6709 45.2877 16.6709 43.999C16.6711 42.7105 17.7153 41.666 19.0039 41.666ZM31.0039 41.666C32.2925 41.666 33.3367 42.7105 33.3369 43.999C33.3369 45.2877 32.2926 46.333 31.0039 46.333C29.7152 46.333 28.6709 45.2877 28.6709 43.999C28.6711 42.7105 29.7153 41.666 31.0039 41.666ZM15.0156 21.666C15.6025 21.666 16.1211 22.0499 16.292 22.6113L16.8154 24.333H36.0039V30.3564C36.0039 31.5301 35.2361 32.5665 34.1133 32.9082L20.6709 36.999H29.3369C30.8096 36.999 32.0039 38.1933 32.0039 39.666V40.333H17.6709L13.3369 24.999C11.4961 24.9988 10.0039 23.5069 10.0039 21.666H15.0156Z" fill="white"/>
</g>
</g>
<rect x="35" width="20" height="20.001" rx="10" fill="#EF3124"/>
<path d="M44.6602 14.2188C42.627 14.2188 41.25 13.2168 41.25 11.7461C41.25 10.6855 41.9824 9.83594 43.1133 9.58398V9.47852C42.1934 9.26758 41.5898 8.53516 41.5898 7.63867C41.5898 6.29102 42.8672 5.33008 44.666 5.33008C46.459 5.33008 47.7363 6.29102 47.7363 7.63867C47.7363 8.54102 47.1387 9.26172 46.2129 9.47852V9.58398C47.3379 9.79492 48.082 10.6504 48.082 11.7285C48.082 13.2109 46.6934 14.2188 44.6602 14.2188ZM44.6602 12.8828C45.5918 12.8828 46.2363 12.3496 46.2363 11.582C46.2363 10.8086 45.5918 10.2754 44.6602 10.2754C43.7344 10.2754 43.0898 10.8086 43.0898 11.582C43.0898 12.3496 43.7344 12.8828 44.6602 12.8828ZM44.6602 8.96875C45.4453 8.96875 45.9902 8.48828 45.9902 7.80859C45.9902 7.12305 45.4453 6.64258 44.6602 6.64258C43.875 6.64258 43.3359 7.12305 43.3359 7.80859C43.3359 8.48828 43.8809 8.96875 44.6602 8.96875Z" fill="white"/>
</svg>
